<?xml version="1.0" encoding="UTF-8" standalone="no"?>
<!DOCTYPE svg PUBLIC "-//W3C//DTD SVG 1.1//EN" "http://www.w3.org/Graphics/SVG/1.1/DTD/svg11.dtd">
<!-- Generated by Microsoft Visio, SVG Export model_build_overview_with_onnx_and_hef_w_har1.svg Page-2 -->
<svg xmlns="http://www.w3.org/2000/svg" xmlns:xlink="http://www.w3.org/1999/xlink" xmlns:ev="http://www.w3.org/2001/xml-events" width="8.81926in" height="9.36174in" viewBox="0 0 634.987 674.045" xml:space="preserve" color-interpolation-filters="sRGB" class="st13">
	<style type="text/css">
	<![CDATA[
		.st1 {fill:#913ab5;stroke:#000000;stroke-linecap:round;stroke-linejoin:round;stroke-width:0.24}
		.st2 {fill:#ffffff;font-family:Arial;font-size:1.33333em}
		.st3 {font-size:1em}
		.st4 {fill:#000000}
		.st5 {stroke:none;stroke-linecap:round;stroke-linejoin:round;stroke-width:0.75}
		.st6 {stroke:#000000;stroke-linecap:round;stroke-linejoin:round;stroke-width:0.24}
		.st7 {fill:#ffffff;stroke:none;stroke-linecap:round;stroke-linejoin:round;stroke-width:0.24;visibility:hidden}
		.st8 {fill:#004b66;stroke:#000000;stroke-linecap:round;stroke-linejoin:round;stroke-width:0.24}
		.st9 {fill:#0098c4;stroke:#000000;stroke-linecap:round;stroke-linejoin:round;stroke-width:0.24}
		.st10 {stroke:#000000;stroke-linecap:round;stroke-linejoin:round;stroke-width:1.5}
		.st11 {fill:none;stroke:none;stroke-linecap:round;stroke-linejoin:round;stroke-width:0.75}
		.st12 {fill:#000000;font-family:Arial;font-size:1.33333em}
		.st13 {fill:none;fill-rule:evenodd;font-size:12px;overflow:visible;stroke-linecap:square;stroke-miterlimit:3}
	]]>
	</style>

	<g>
		<title>Page-2</title>
		<g id="group1-1" transform="translate(19.219,-586.45)">
			<title>Can.80</title>
			<desc>User’s Tensorflow/ONNX Model (e.g. Checkpoint)</desc>
			<g id="shape2-2">
				<title>Sheet.2</title>
				<path d="M0 667.57 A153.013 6.47548 -180 0 0 306.03 667.57 L306.03 611.05 L0 611.05 L0 667.57 Z" class="st1"/>
			</g>
			<g id="shape1-4">
				<ellipse cx="153.013" cy="611.046" rx="153.013" ry="6.47548" class="st1"/>
				<text x="39.65" y="634.51" class="st2">User’s Tensorflow/ONNX Model<tspan x="92.1" dy="1.2em" class="st3">(e.g. Checkpoint)</tspan></text>			</g>
		</g>
		<g id="group9-8" transform="translate(832.102,85.8459) rotate(89.8482)">
			<title>1-D single.11</title>
			<g id="shape10-9">
				<title>Sheet.10</title>
				<path d="M0 666.96 L32.27 666.96 L32.27 674.05 L39.35 659.87 L32.27 645.7 L32.27 652.79 L0 652.79 L0 666.96 Z" class="st4"/>
				<path d="M0 666.96 L32.27 666.96 L32.27 674.05 L39.35 659.87 L32.27 645.7 L32.27 652.79 L0 652.79" class="st5"/>
			</g>
			<g id="shape11-12">
				<title>Sheet.11</title>
				<path d="M0 666.96 L32.27 666.96 L32.27 674.05 L39.35 659.87 L32.27 645.7 L32.27 652.79 L0 652.79 L0 666.96" class="st6"/>
			</g>
			<g id="shape12-15" transform="translate(-0.504578,-7.20661)">
				<title>Sheet.12</title>
				<rect x="0" y="660.112" width="0.222119" height="13.9332" class="st7"/>
			</g>
		</g>
		<g id="shape13-17" transform="translate(18.1258,-495.193)">
			<title>Rectangle.42</title>
			<desc>Hailo Tensorflow/ONNX Translator</desc>
			<rect x="0" y="622.139" width="308.421" height="51.9062" class="st8"/>
			<text x="31.06" y="652.89" class="st2">Hailo Tensorflow/ONNX Translator</text>		</g>
		<g id="shape14-20" transform="translate(18.1298,-87.3538)">
			<title>Rectangle.62</title>
			<desc>Allocate Resources and Generate Compiled Binary File</desc>
			<rect x="0" y="622.139" width="312.266" height="51.9062" class="st8"/>
			<text x="36.06" y="643.29" class="st2">Allocate Resources and Generate <tspan x="82.33" dy="1.2em" class="st3">Compiled Binary File </tspan></text>		</g>
		<g id="group15-24" transform="translate(829.978,169.81) rotate(89.2122)">
			<title>1-D single.22</title>
			<g id="shape16-25">
				<title>Sheet.16</title>
				<path d="M0 665.87 L26.77 665.87 L26.77 674.05 L34.94 657.7 L26.77 641.36 L26.77 649.53 L0 649.53 L0 665.87 Z" class="st4"/>
				<path d="M0 665.87 L26.77 665.87 L26.77 674.05 L34.94 657.7 L26.77 641.36 L26.77 649.53 L0 649.53" class="st5"/>
			</g>
			<g id="shape17-28">
				<title>Sheet.17</title>
				<path d="M0 665.87 L26.77 665.87 L26.77 674.05 L34.94 657.7 L26.77 641.36 L26.77 649.53 L0 649.53 L0 665.87" class="st6"/>
			</g>
			<g id="shape18-31" transform="translate(-0.447998,-8.3089)">
				<title>Sheet.18</title>
				<rect x="0" y="657.981" width="0.197212" height="16.0644" class="st7"/>
			</g>
		</g>
		<g id="shape24-33" transform="translate(18.12,-296.372)">
			<title>Rectangle.58</title>
			<desc>Hailo Model Optimization</desc>
			<rect x="0" y="622.139" width="310.481" height="51.9062" class="st8"/>
			<text x="66.32" y="652.89" class="st2">Hailo Model Optimization</text>		</g>
		<g id="group31-36" transform="translate(830.413,283.847) rotate(88.9627)">
			<title>1-D single.31</title>
			<g id="shape32-37">
				<title>Sheet.32</title>
				<path d="M0 665.87 L21.85 665.87 L21.85 674.05 L30.02 657.7 L21.85 641.36 L21.85 649.53 L0 649.53 L0 665.87 Z" class="st4"/>
				<path d="M0 665.87 L21.85 665.87 L21.85 674.05 L30.02 657.7 L21.85 641.36 L21.85 649.53 L0 649.53" class="st5"/>
			</g>
			<g id="shape33-40">
				<title>Sheet.33</title>
				<path d="M0 665.87 L21.85 665.87 L21.85 674.05 L30.02 657.7 L21.85 641.36 L21.85 649.53 L0 649.53 L0 665.87" class="st6"/>
			</g>
			<g id="shape34-43" transform="translate(-0.384902,-8.3089)">
				<title>Sheet.34</title>
				<rect x="0" y="657.981" width="0.169437" height="16.0644" class="st7"/>
			</g>
		</g>
		<g id="group39-45" transform="translate(63.4782,-18.12)">
			<title>Can.99</title>
			<desc>Hailo Executable File (HEF)</desc>
			<g id="shape40-46">
				<title>Sheet.40</title>
				<path d="M0 669.89 A111.072 4.1525 -180 1 0 222.14 669.89 L222.14 636.67 L0 636.67 L0 669.89 Z" class="st9"/>
			</g>
			<g id="shape39-48">
				<ellipse cx="111.072" cy="636.673" rx="111.072" ry="4.1525" class="st9"/>
				<text x="12.37" y="658.08" class="st2">Hailo Executable File (HEF) </text>			</g>
		</g>
		<g id="group41-51" transform="translate(834.099,579.844) rotate(89.4054)">
			<title>1-D single.101</title>
			<g id="shape42-52">
				<title>Sheet.42</title>
				<path d="M0 666.96 L20.62 666.96 L20.62 674.05 L27.71 659.87 L20.62 645.7 L20.62 652.79 L0 652.79 L0 666.96 Z" class="st4"/>
				<path d="M0 666.96 L20.62 666.96 L20.62 674.05 L27.71 659.87 L20.62 645.7 L20.62 652.79 L0 652.79" class="st5"/>
			</g>
			<g id="shape43-55">
				<title>Sheet.43</title>
				<path d="M0 666.96 L20.62 666.96 L20.62 674.05 L27.71 659.87 L20.62 645.7 L20.62 652.79 L0 652.79 L0 666.96" class="st6"/>
			</g>
			<g id="shape44-58" transform="translate(-0.355308,-7.20661)">
				<title>Sheet.44</title>
				<rect x="0" y="660.112" width="0.156409" height="13.9332" class="st7"/>
			</g>
		</g>
		<g id="shape45-60" transform="translate(371.122,-393.31)">
			<title>Rectangle.110</title>
			<desc>Hailo Profiler Tool</desc>
			<rect x="0" y="622.139" width="147.07" height="51.9062" class="st8"/>
			<text x="9.96" y="652.89" class="st2">Hailo Profiler Tool</text>		</g>
		<g id="shape50-63" transform="translate(1196.01,211.23) rotate(90)">
			<title>Bracket.118</title>
			<path d="M0 674.05 A4.43988 4.43988 0 0 1 3.92 670.12 L42.18 670.12 A4.43988 4.43988 -180 0 0 46.1 666.2 A4.43988 4.43988        -180 0 0 50.03 670.12 L82.59 670.12 A4.43988 4.43988 0 0 1 86.51 674.05" class="st10"/>
		</g>
		<g id="shape51-66" transform="translate(530.255,-393.31)">
			<title>Sheet.51</title>
			<desc>Analyze Hailo Model Resources</desc>
			<rect x="0" y="627.524" width="86.3562" height="46.5209" class="st11"/>
			<text x="14.72" y="626.79" class="st12">Analyze <tspan x="24.95" dy="1.2em" class="st3">Hailo </tspan><tspan x="21.39" dy="1.2em" class="st3">Model </tspan><tspan x="4.94" dy="1.2em" class="st3">Resources</tspan></text>		</g>
		<g id="shape52-72" transform="translate(1189.23,407.378) rotate(90)">
			<title>Bracket.125</title>
			<path d="M0 674.05 A7.70398 7.70398 0 0 1 6.81 667.24 L48.52 667.24 A7.70398 7.70398 -180 0 0 55.33 660.43 A7.70398 7.70398        -180 0 0 62.13 667.24 L97.01 667.24 A7.70398 7.70398 0 0 1 103.81 674.05" class="st10"/>
		</g>
		<g id="shape53-75" transform="translate(536.441,-188.208)">
			<title>Sheet.53</title>
			<desc>Analyze Numeric Model Accuracy</desc>
			<rect x="0" y="620.409" width="77.9528" height="53.6365" class="st11"/>
			<text x="10.52" y="623.23" class="st12">Analyze <tspan x="9.2" dy="1.2em" class="st3">Numeric </tspan><tspan x="17.19" dy="1.2em" class="st3">Model </tspan><tspan x="6.08" dy="1.2em" class="st3">Accuracy</tspan></text>		</g>
		<g id="group66-81" transform="translate(833.232,377.562) rotate(89.9903)">
			<title>1-D single.146</title>
			<g id="shape67-82">
				<title>Sheet.67</title>
				<path d="M0 666.96 L27.85 666.96 L27.85 674.05 L34.94 659.87 L27.85 645.7 L27.85 652.79 L0 652.79 L0 666.96 Z" class="st4"/>
				<path d="M0 666.96 L27.85 666.96 L27.85 674.05 L34.94 659.87 L27.85 645.7 L27.85 652.79 L0 652.79" class="st5"/>
			</g>
			<g id="shape68-85">
				<title>Sheet.68</title>
				<path d="M0 666.96 L27.85 666.96 L27.85 674.05 L34.94 659.87 L27.85 645.7 L27.85 652.79 L0 652.79 L0 666.96" class="st6"/>
			</g>
			<g id="shape69-88" transform="translate(-0.447989,-7.20661)">
				<title>Sheet.69</title>
				<rect x="0" y="660.112" width="0.197208" height="13.9332" class="st7"/>
			</g>
		</g>
		<g id="group70-90" transform="translate(830.787,484.933) rotate(88.3194)">
			<title>1-D single.150</title>
			<g id="shape71-91">
				<title>Sheet.71</title>
				<path d="M0 665.87 L22.41 665.87 L22.41 674.05 L30.58 657.7 L22.41 641.36 L22.41 649.53 L0 649.53 L0 665.87 Z" class="st4"/>
				<path d="M0 665.87 L22.41 665.87 L22.41 674.05 L30.58 657.7 L22.41 641.36 L22.41 649.53 L0 649.53" class="st5"/>
			</g>
			<g id="shape72-94">
				<title>Sheet.72</title>
				<path d="M0 665.87 L22.41 665.87 L22.41 674.05 L30.58 657.7 L22.41 641.36 L22.41 649.53 L0 649.53 L0 665.87" class="st6"/>
			</g>
			<g id="shape73-97" transform="translate(-0.392052,-8.3089)">
				<title>Sheet.73</title>
				<rect x="0" y="657.981" width="0.172585" height="16.0644" class="st7"/>
			</g>
		</g>
		<g id="shape83-99" transform="translate(373.451,-188.208)">
			<title>Rectangle.93</title>
			<desc>Hailo Emulator Tool</desc>
			<rect x="0" y="622.139" width="147.07" height="51.9062" class="st8"/>
			<text x="21.07" y="643.29" class="st2">Hailo Emulator <tspan x="57.97" dy="1.2em" class="st3">Tool</tspan></text>		</g>
		<g id="group84-103" transform="translate(327.667,-405.101) rotate(0.0139034)">
			<title>1-D single.94</title>
			<g id="shape85-104">
				<title>Sheet.85</title>
				<path d="M0 666.96 L36.53 666.96 L36.53 674.05 L43.62 659.87 L36.53 645.7 L36.53 652.79 L0 652.79 L0 666.96 Z" class="st4"/>
				<path d="M0 666.96 L36.53 666.96 L36.53 674.05 L43.62 659.87 L36.53 645.7 L36.53 652.79 L0 652.79" class="st5"/>
			</g>
			<g id="shape86-107">
				<title>Sheet.86</title>
				<path d="M0 666.96 L36.53 666.96 L36.53 674.05 L43.62 659.87 L36.53 645.7 L36.53 652.79 L0 652.79 L0 666.96" class="st6"/>
			</g>
			<g id="shape87-110" transform="translate(-0.559248,-7.20661)">
				<title>Sheet.87</title>
				<rect x="0" y="660.112" width="0.246185" height="13.9332" class="st7"/>
			</g>
		</g>
		<g id="group88-112" transform="translate(373.449,1011.59) rotate(180)">
			<title>1-D single.102</title>
			<g id="shape89-113">
				<title>Sheet.89</title>
				<path d="M0 666.96 L37.76 666.96 L37.76 674.05 L44.85 659.87 L37.76 645.7 L37.76 652.79 L0 652.79 L0 666.96 Z" class="st4"/>
				<path d="M0 666.96 L37.76 666.96 L37.76 674.05 L44.85 659.87 L37.76 645.7 L37.76 652.79 L0 652.79" class="st5"/>
			</g>
			<g id="shape90-116">
				<title>Sheet.90</title>
				<path d="M0 666.96 L37.76 666.96 L37.76 674.05 L44.85 659.87 L37.76 645.7 L37.76 652.79 L0 652.79 L0 666.96" class="st6"/>
			</g>
			<g id="shape91-119" transform="translate(-0.575059,-7.20661)">
				<title>Sheet.91</title>
				<rect x="0" y="660.112" width="0.253145" height="13.9332" class="st7"/>
			</g>
		</g>
		<g id="shape92-121" transform="translate(359.276,-301.757)">
			<title>Sheet.92</title>
			<desc>Calibration images</desc>
			<rect x="0" y="627.524" width="121.49" height="46.5209" class="st11"/>
			<text x="22.5" y="645.98" class="st12">Calibration <tspan x="34.96" dy="1.2em" class="st3">images</tspan></text>		</g>
		<g id="group19-125" transform="translate(18.1272,-378.291)">
			<title>Can.67</title>
			<desc>Hailo Archive (HAR) Model representation and parameters (32-b...</desc>
			<g id="shape20-126">
				<title>Sheet.20</title>
				<path d="M0 665.85 A154.69 8.19653 -180 0 0 309.38 665.85 L309.38 600.28 L0 600.28 L0 665.85 Z" class="st9"/>
			</g>
			<g id="shape19-128">
				<ellipse cx="154.69" cy="600.276" rx="154.69" ry="8.19653" class="st9"/>
				<text x="83.12" y="625.86" class="st2">Hailo Archive (HAR) <tspan x="21.28" dy="1.2em" class="st3">Model representation and parameters </tspan><tspan x="96" dy="1.2em" class="st3">(32</tspan>-bits weights)</text>			</g>
		</g>
		<g id="group64-133" transform="translate(18.1294,-169.823)">
			<title>Can.144</title>
			<desc>Hailo Archive (HAR) Optimized model representation and parame...</desc>
			<g id="shape65-134">
				<title>Sheet.65</title>
				<path d="M0 664.88 A155.237 9.16102 -180 1 0 310.47 664.88 L310.47 591.6 L0 591.6 L0 664.88 Z" class="st9"/>
			</g>
			<g id="shape64-136">
				<ellipse cx="155.237" cy="591.596" rx="155.237" ry="9.16102" class="st9"/>
				<text x="83.67" y="621.04" class="st2">Hailo Archive (HAR) <tspan x="26.28" dy="1.2em" class="st3">Optimized model representation and </tspan><tspan x="43.18" dy="1.2em" class="st3">parameters (quantized weights)</tspan></text>			</g>
		</g>
		<g id="group93-141" transform="translate(329.81,-199.372) rotate(0.0139034)">
			<title>1-D single.93</title>
			<g id="shape94-142">
				<title>Sheet.94</title>
				<path d="M0 666.96 L36.53 666.96 L36.53 674.05 L43.62 659.87 L36.53 645.7 L36.53 652.79 L0 652.79 L0 666.96 Z" class="st4"/>
				<path d="M0 666.96 L36.53 666.96 L36.53 674.05 L43.62 659.87 L36.53 645.7 L36.53 652.79 L0 652.79" class="st5"/>
			</g>
			<g id="shape95-145">
				<title>Sheet.95</title>
				<path d="M0 666.96 L36.53 666.96 L36.53 674.05 L43.62 659.87 L36.53 645.7 L36.53 652.79 L0 652.79 L0 666.96" class="st6"/>
			</g>
			<g id="shape96-148" transform="translate(-0.559248,-7.20661)">
				<title>Sheet.96</title>
				<rect x="0" y="660.112" width="0.246185" height="13.9332" class="st7"/>
			</g>
		</g>
	</g>
</svg>